<svg xmlns="http://www.w3.org/2000/svg" width="32.083" height="32.083" viewBox="0 0 32.083 32.083">
    <g id="logout" transform="translate(0 -0.004)">
        <path id="Path_115" data-name="Path 115" d="M20.052,17.382a1.336,1.336,0,0,0-1.337,1.337v5.347A1.338,1.338,0,0,1,17.378,25.4h-4.01V5.351A2.694,2.694,0,0,0,11.547,2.81l-.4-.132h6.227a1.338,1.338,0,0,1,1.337,1.337v4.01a1.337,1.337,0,0,0,2.673,0V4.014A4.015,4.015,0,0,0,17.378,0H3.008a1.05,1.05,0,0,0-.143.029C2.8.028,2.739,0,2.674,0A2.676,2.676,0,0,0,0,2.677V26.74a2.694,2.694,0,0,0,1.821,2.541l8.045,2.682a2.768,2.768,0,0,0,.829.124,2.676,2.676,0,0,0,2.673-2.674V28.077h4.01a4.015,4.015,0,0,0,4.01-4.01V18.719a1.336,1.336,0,0,0-1.337-1.337Zm0,0" fill="#fff"/>
        <path id="Path_116" data-name="Path 116" d="M291.645,112.4l-5.347-5.347a1.336,1.336,0,0,0-2.282.945v4.01h-5.347a1.337,1.337,0,1,0,0,2.673h5.347v4.01a1.336,1.336,0,0,0,2.282.945l5.347-5.347a1.335,1.335,0,0,0,0-1.89Zm0,0" transform="translate(-259.954 -99.978)" fill="#fff"/>
    </g>
</svg>
