<svg xmlns="http://www.w3.org/2000/svg" width="23.109" height="32.083" viewBox="0 0 23.109 32.083">
    <g id="medals_4" data-name="medals 4" transform="translate(-5.866 -2)">
        <path id="Path_101" data-name="Path 101" d="M24.262,12.626l4.561-8.973a1.14,1.14,0,0,0,0-1.14A1.14,1.14,0,0,0,27.842,2h-6.02a1.14,1.14,0,0,0-1.015.627L17.421,9.286,14,2.627A1.14,1.14,0,0,0,13.019,2H7a1.118,1.118,0,0,0-.981,1.687l4.561,8.973a1.14,1.14,0,0,0,1.015.616h2.577a5.04,5.04,0,0,0-.251,1.562,6.031,6.031,0,0,0,0,.638,9.634,9.634,0,1,0,7.023,0A6.2,6.2,0,0,0,21,14.816a5.336,5.336,0,0,0-.16-1.573h2.5A1.14,1.14,0,0,0,24.262,12.626ZM23.213,22.888l-2.907,2.839.684,4.013-3.569-1.915-3.6,1.893L14.5,25.7l-2.907-2.839,4.025-.581,1.8-3.66,1.8,3.66Zm-4.5-8.061v.08a9.851,9.851,0,0,0-1.288-.125,8.859,8.859,0,0,0-1.243.091.148.148,0,0,1,0-.068,2.52,2.52,0,0,1,.49-1.562h1.6a2.52,2.52,0,0,1,.479,1.562Z" transform="translate(0 0)" fill="#fff"/>
    </g>
</svg>
