<svg xmlns="http://www.w3.org/2000/svg" width="37.203" height="32.083" viewBox="0 0 37.203 32.083">
    <g id="paw" transform="translate(-0.001 -35.905)">
        <g id="Group_103" data-name="Group 103" transform="translate(5.822 49.448)">
            <g id="Group_102" data-name="Group 102">
                <path id="Path_96" data-name="Path 96" d="M105.832,231.287c-2.559-3.089-5.793-4.791-9.107-4.791s-6.548,1.7-9.107,4.791a15.357,15.357,0,0,0-3.673,9.362,4.181,4.181,0,0,0,1.362,3.393,5.129,5.129,0,0,0,3.383.994,25.947,25.947,0,0,0,4.475-.564A22.025,22.025,0,0,1,96.725,244a20.737,20.737,0,0,1,3.267.451c2.92.542,6.231,1.157,8.143-.433a4.144,4.144,0,0,0,1.37-3.366A15.356,15.356,0,0,0,105.832,231.287Z" transform="translate(-83.945 -226.496)" fill="#fff"/>
            </g>
        </g>
        <g id="Group_105" data-name="Group 105" transform="translate(19.113 35.905)">
            <g id="Group_104" data-name="Group 104" transform="translate(0 0)">
                <path id="Path_97" data-name="Path 97" d="M273.831,38.078a4.2,4.2,0,0,0-7.356,0,8.909,8.909,0,0,0,0,9.378,4.2,4.2,0,0,0,7.356,0,8.909,8.909,0,0,0,0-9.378Z" transform="translate(-265.141 -35.906)" fill="#fff"/>
            </g>
        </g>
        <g id="Group_107" data-name="Group 107" transform="translate(8.068 35.905)">
            <g id="Group_106" data-name="Group 106">
                <path id="Path_98" data-name="Path 98" d="M120.606,38.077a4.2,4.2,0,0,0-7.356,0,8.909,8.909,0,0,0,0,9.378,4.2,4.2,0,0,0,7.356,0,8.909,8.909,0,0,0,0-9.378Z" transform="translate(-111.916 -35.905)" fill="#fff"/>
            </g>
        </g>
        <g id="Group_109" data-name="Group 109" transform="translate(28.688 45.73)">
            <g id="Group_108" data-name="Group 108">
                <path id="Path_99" data-name="Path 99" d="M405.644,174.751a3.826,3.826,0,0,0-2.278-2.627,3.58,3.58,0,0,0-2.792.158,5.744,5.744,0,0,0-2.849,3.368,6.211,6.211,0,0,0-.155,3.76,3.827,3.827,0,0,0,2.278,2.627,3.351,3.351,0,0,0,1.181.212,3.8,3.8,0,0,0,1.611-.37,5.744,5.744,0,0,0,2.849-3.368h0A6.211,6.211,0,0,0,405.644,174.751Z" transform="translate(-397.35 -171.912)" fill="#fff"/>
            </g>
        </g>
        <g id="Group_111" data-name="Group 111" transform="translate(0.001 45.73)">
            <g id="Group_110" data-name="Group 110" transform="translate(0)">
                <path id="Path_100" data-name="Path 100" d="M8.141,175.65a5.745,5.745,0,0,0-2.849-3.368,3.58,3.58,0,0,0-2.792-.158,3.827,3.827,0,0,0-2.278,2.627,6.21,6.21,0,0,0,.155,3.76h0a5.745,5.745,0,0,0,2.849,3.368,3.8,3.8,0,0,0,1.611.37,3.351,3.351,0,0,0,1.181-.212A3.826,3.826,0,0,0,8.3,179.41,6.213,6.213,0,0,0,8.141,175.65Z" transform="translate(-0.001 -171.912)" fill="#fff"/>
            </g>
        </g>
    </g>
</svg>
