<svg xmlns="http://www.w3.org/2000/svg" width="26.767" height="32.083" viewBox="0 0 26.767 32.083">
    <g id="user_3_" data-name="user (3)" transform="translate(0 0)">
        <path id="Path_113" data-name="Path 113" d="M94.759,15.455a7.477,7.477,0,0,0,5.464-2.264,7.477,7.477,0,0,0,2.264-5.464,7.478,7.478,0,0,0-2.264-5.464,7.726,7.726,0,0,0-10.927,0,7.477,7.477,0,0,0-2.264,5.463A7.477,7.477,0,0,0,89.3,13.191,7.479,7.479,0,0,0,94.759,15.455Zm0,0" transform="translate(-81.578 0)" fill="#fff"/>
        <path id="Path_114" data-name="Path 114" d="M26.7,256.489a19.085,19.085,0,0,0-.26-2.027,15.973,15.973,0,0,0-.5-2.038,10.068,10.068,0,0,0-.838-1.9,7.173,7.173,0,0,0-1.264-1.647,5.571,5.571,0,0,0-1.815-1.14,6.273,6.273,0,0,0-2.317-.419,2.352,2.352,0,0,0-1.256.533c-.376.246-.817.529-1.308.843a7.5,7.5,0,0,1-1.693.746,6.574,6.574,0,0,1-4.141,0,7.48,7.48,0,0,1-1.692-.746c-.487-.311-.927-.6-1.31-.844a2.349,2.349,0,0,0-1.255-.533,6.265,6.265,0,0,0-2.317.42,5.566,5.566,0,0,0-1.815,1.14,7.174,7.174,0,0,0-1.263,1.646,10.087,10.087,0,0,0-.838,1.9,16.011,16.011,0,0,0-.5,2.038,19.02,19.02,0,0,0-.26,2.028C.021,257.1,0,257.741,0,258.384a5.327,5.327,0,0,0,1.582,4.03A5.7,5.7,0,0,0,5.659,263.9H21.107a5.7,5.7,0,0,0,4.077-1.487,5.325,5.325,0,0,0,1.582-4.031c0-.646-.022-1.284-.065-1.895Zm0,0" transform="translate(0 -231.819)" fill="#fff"/>
    </g>
</svg>
