<svg xmlns="http://www.w3.org/2000/svg" width="32.086" height="32.083" viewBox="0 0 32.086 32.083">
    <g id="_10_Location" data-name="10 Location" transform="translate(0.005)">
        <path id="Path_102" data-name="Path 102" d="M9.935,32.083a10.97,10.97,0,0,1-1.771-.143,10.272,10.272,0,0,1-5.185-2.422,8.5,8.5,0,0,1-2.95-7.164,8.651,8.651,0,0,1,2.95-5.677L19.688,1.88a7.854,7.854,0,0,1,10.2,0,6.212,6.212,0,0,1,1.888,6.647,6.87,6.87,0,0,1-2,2.985l-3.255,2.882L16.3,23.436a6.049,6.049,0,0,1-3.14,1.531A4.4,4.4,0,0,1,9.6,23.879a4.488,4.488,0,0,1,0-6.835L19.922,7.9A1.567,1.567,0,1,1,22,10.25L11.675,19.39a1.363,1.363,0,0,0,0,2.146c.926.82,2.093-.037,2.552-.443L24.44,12.051,27.7,9.168a3.747,3.747,0,0,0,1.1-1.614,3.084,3.084,0,0,0-.988-3.327,4.737,4.737,0,0,0-6.04,0L5.056,19.023a5.532,5.532,0,0,0-1.907,3.616,5.4,5.4,0,0,0,1.907,4.533,7.162,7.162,0,0,0,3.612,1.676,7.527,7.527,0,0,0,6.162-1.676L28.325,15.223A1.567,1.567,0,1,1,30.4,17.568L16.908,29.517A10.552,10.552,0,0,1,9.935,32.083Z" transform="translate(0)" fill="#fff"/>
    </g>
</svg>
