<svg xmlns="http://www.w3.org/2000/svg" width="21.76" height="21.756" viewBox="0 0 21.76 21.756">
    <path id="Icon_awesome-instagram" data-name="Icon awesome-instagram" d="M10.877,7.538a5.578,5.578,0,1,0,5.578,5.578A5.569,5.569,0,0,0,10.877,7.538Zm0,9.2A3.626,3.626,0,1,1,14.5,13.115,3.633,3.633,0,0,1,10.877,16.742Zm7.107-9.432a1.3,1.3,0,1,1-1.3-1.3A1.3,1.3,0,0,1,17.984,7.309Zm3.694,1.32a6.438,6.438,0,0,0-1.757-4.558,6.481,6.481,0,0,0-4.558-1.757c-1.8-.1-7.18-.1-8.976,0A6.471,6.471,0,0,0,1.829,4.067,6.459,6.459,0,0,0,.071,8.625c-.1,1.8-.1,7.18,0,8.976a6.438,6.438,0,0,0,1.757,4.558,6.489,6.489,0,0,0,4.558,1.757c1.8.1,7.18.1,8.976,0a6.438,6.438,0,0,0,4.558-1.757A6.481,6.481,0,0,0,21.679,17.6c.1-1.8.1-7.175,0-8.971Zm-2.32,10.9A3.671,3.671,0,0,1,17.29,21.6c-1.432.568-4.83.437-6.413.437s-4.986.126-6.413-.437A3.671,3.671,0,0,1,2.4,19.528C1.829,18.1,1.96,14.7,1.96,13.115S1.833,8.13,2.4,6.7A3.671,3.671,0,0,1,4.465,4.635C5.9,4.067,9.295,4.2,10.877,4.2s4.986-.126,6.413.437A3.671,3.671,0,0,1,19.358,6.7c.568,1.432.437,4.83.437,6.413S19.926,18.1,19.358,19.528Z" transform="translate(0.005 -2.238)" fill="#fff"/>
</svg>
