<svg id="pin_1_" data-name="pin (1)" xmlns="http://www.w3.org/2000/svg" width="10.172" height="13.768" viewBox="0 0 10.172 13.768">
    <g id="Group_68" data-name="Group 68" transform="translate(0)">
        <g id="Group_67" data-name="Group 67">
            <path id="Path_20" data-name="Path 20" d="M53.166,0A5.092,5.092,0,0,0,48.08,5.086a5.868,5.868,0,0,0,.431,1.958,8.2,8.2,0,0,0,.588,1.1l3.487,5.284a.663.663,0,0,0,1.159,0l3.487-5.284a8.167,8.167,0,0,0,.588-1.1,5.866,5.866,0,0,0,.431-1.958A5.092,5.092,0,0,0,53.166,0Zm4.1,6.812a7.516,7.516,0,0,1-.536,1L53.246,13.1c-.069.1-.091.1-.159,0L49.6,7.814a7.519,7.519,0,0,1-.536-1,5.326,5.326,0,0,1-.385-1.726,4.488,4.488,0,0,1,8.975,0A5.331,5.331,0,0,1,57.269,6.812Z" transform="translate(-48.08)"/>
            <path id="Path_21" data-name="Path 21" d="M114.773,64.008a2.693,2.693,0,1,0,2.693,2.693A2.7,2.7,0,0,0,114.773,64.008Zm0,4.787a2.094,2.094,0,1,1,2.094-2.094A2.1,2.1,0,0,1,114.773,68.795Z" transform="translate(-109.687 -61.614)"/>
        </g>
    </g>
</svg>
