<svg xmlns="http://www.w3.org/2000/svg" width="12.645" height="8.891" viewBox="0 0 12.645 8.891">
    <g id="mail_1_" data-name="mail (1)" transform="translate(-2 -1.544)">
        <g id="Group_66" data-name="Group 66" transform="translate(2 1.544)">
            <path id="Path_19" data-name="Path 19" d="M11.533,76H1.111A1.113,1.113,0,0,0,0,77.111v6.668a1.113,1.113,0,0,0,1.111,1.111H11.533a1.113,1.113,0,0,0,1.111-1.111V77.111A1.112,1.112,0,0,0,11.533,76Zm-.156.741L7.108,80.988a1.111,1.111,0,0,1-1.572,0L1.267,76.741ZM.741,83.629V77.263l3.2,3.185Zm.527.521,3.2-3.18.545.542a1.852,1.852,0,0,0,2.619,0l.545-.543,3.2,3.18ZM11.9,83.629,8.7,80.447l3.2-3.185Z" transform="translate(0 -76)"/>
        </g>
    </g>
</svg>
