<svg xmlns="http://www.w3.org/2000/svg" width="210.378" height="226.777" viewBox="0 0 210.378 226.777">
    <g id="packa" transform="translate(0.751 -127.958) rotate(30)" opacity="0.12">
        <g id="Group_23" data-name="Group 23" transform="translate(165.132 142.25)">
            <path id="Path_9" data-name="Path 9" d="M161.333,75.462c10.448-2.849,18.046,1.9,28.969,9.5,5.7,3.8,12.347,8.548,20.421,12.347,16.146,7.6,26.119,18.046,26.594,27.544.475,4.749-1.9,9.023-6.174,11.872a9.546,9.546,0,0,1-3.8,1.9c-5.224,1.9-11.872.475-19-.475-8.073-1.425-17.571-2.849-26.594,0h-.95c-9.023,2.849-15.672,9.5-21.37,15.2-5.224,5.224-9.5,9.973-15.2,11.4-1.425.475-2.849.475-3.8.95-5.224,0-9.5-1.9-11.872-6.174-5.224-8.073-2.849-22.32,5.7-37.992a138.62,138.62,0,0,0,9.5-21.845c4.274-11.872,7.123-20.421,17.571-24.22m-1.425-4.749c-19.471,6.649-18.046,26.594-30.393,48.914-18.046,32.768-6.174,52.239,10.923,51.764a17.072,17.072,0,0,0,5.224-.95c13.3-4.274,21.37-21.845,36.567-27.069h.95c15.2-4.749,31.818,5.224,45.59.475a14.856,14.856,0,0,0,4.749-2.375c14.247-9.5,12.822-32.293-20.9-48.439-22.8-11.4-33.243-28.019-52.714-22.32Z" transform="translate(-120.502 -69.556)" fill="#e5e5e5"/>
        </g>
        <g id="Group_24" data-name="Group 24" transform="translate(108.598 134.732)">
            <path id="Path_10" data-name="Path 10" d="M120.957,73.8h0c7.6-2.374,19,.475,28.494,7.6,6.649,4.749,11.872,10.923,14.247,17.571,1.425,3.324,2.849,9.5-.475,13.772-1.425,1.9-3.324,2.849-5.7,3.8-7.6,2.374-19-.475-28.494-7.6-6.649-4.749-11.872-10.923-14.247-17.571-1.425-3.324-2.849-9.5.475-13.772a17.077,17.077,0,0,1,5.7-3.8m-1.425-4.749a14.159,14.159,0,0,0-8.073,5.7c-7.123,9.973-.475,27.544,14.722,38.941,11.4,8.073,24.22,10.923,33.243,8.073a14.159,14.159,0,0,0,8.073-5.7c7.123-9.973.475-27.544-14.722-38.941-11.4-8.073-24.22-10.923-33.243-8.073Z" transform="translate(-108.598 -67.973)" fill="#e5e5e5"/>
        </g>
        <g id="Group_25" data-name="Group 25" transform="translate(244.094 86.944)">
            <path id="Path_11" data-name="Path 11" d="M163.584,63.559a8.093,8.093,0,0,1,6.649,0c9.023,2.849,12.347,18.521,7.123,33.718-3.8,11.4-10.923,19.946-19,22.8a8.092,8.092,0,0,1-6.649,0c-9.023-2.849-12.347-18.521-7.123-33.718,4.274-11.4,11.4-19.946,19-22.8m-1.425-4.749c-9.023,2.849-17.571,12.822-22.32,26.119-6.174,18.521-1.425,36.092,10.448,40.366a17.809,17.809,0,0,0,9.973,0c9.023-2.849,17.571-12.822,22.32-26.119C188.753,80.655,184,63.084,172.132,58.81c-2.849-1.425-6.648-.95-9.973,0Z" transform="translate(-137.129 -57.911)" fill="#e5e5e5"/>
        </g>
        <g id="Group_26" data-name="Group 26" transform="translate(134.821 69.914)">
            <path id="Path_12" data-name="Path 12" d="M128.274,59.907h0c9.023-2.849,21.845,5.7,29.444,19.946,4.274,7.6,6.174,16.146,5.224,23.27-.475,3.8-1.425,10.448-7.123,13.3a1.745,1.745,0,0,1-1.425.475c-9.023,2.849-21.845-5.7-29.444-19.946-4.274-7.6-6.174-16.146-5.224-23.27.475-3.8,1.425-10.448,7.123-13.3a3.675,3.675,0,0,0,1.425-.475m-1.9-4.749c-.95.475-1.9.475-2.374.95-11.4,6.174-13.3,25.644-3.8,43.69,9.023,16.621,24.22,26.119,35.617,22.32.95-.475,1.9-.475,2.374-.95,11.4-6.174,13.3-25.644,3.8-43.69-8.548-16.621-24.22-26.119-35.617-22.32Z" transform="translate(-114.119 -54.325)" fill="#e5e5e5"/>
        </g>
        <g id="Group_27" data-name="Group 27" transform="translate(192.513 50.166)">
            <path id="Path_13" data-name="Path 13" d="M143.992,56.025c.475,0,1.425-.475,1.9-.475,9.973-1.425,20.421,11.872,22.32,28.969,1.9,15.672-3.324,30.393-12.347,33.243-.475,0-1.425.475-1.9.475-6.174.95-10.923-3.8-13.3-6.649a41.31,41.31,0,0,1-9.023-22.32c-1.9-15.672,3.324-30.393,12.347-33.243M142.567,50.8c-11.4,3.8-18.521,20.421-15.672,38.941,2.849,19.946,15.672,35.142,28.494,33.243.95,0,1.9-.475,2.849-.475,11.4-3.8,18.521-20.421,15.672-38.941-2.849-19.946-15.672-35.142-28.494-33.243-.95,0-1.9.475-2.849.475Z" transform="translate(-126.268 -50.166)" fill="#e5e5e5"/>
        </g>
    </g>
</svg>
