<svg id="telephone" xmlns="http://www.w3.org/2000/svg" width="13.541" height="13.592" viewBox="0 0 13.541 13.592">
    <path id="Path_22" data-name="Path 22" d="M3.656,9.035a14.42,14.42,0,0,0,4.8,3.757,7.465,7.465,0,0,0,2.684.794c.065,0,.127.006.192.006a2.223,2.223,0,0,0,1.724-.741.061.061,0,0,0,.011-.014,7.258,7.258,0,0,1,.544-.563c.132-.127.268-.259.4-.394A1.36,1.36,0,0,0,14,9.855L12.305,8.162a1.37,1.37,0,0,0-.991-.456,1.416,1.416,0,0,0-1,.453L9.3,9.168c-.093-.054-.189-.1-.279-.146a3.482,3.482,0,0,1-.31-.169A10.671,10.671,0,0,1,6.165,6.531,6.145,6.145,0,0,1,5.3,5.157c.265-.239.513-.49.752-.735.084-.087.172-.175.259-.262a1.444,1.444,0,0,0,.468-1.014,1.432,1.432,0,0,0-.468-1.014l-.839-.839c-.1-.1-.192-.194-.287-.293C5,.808,4.808.611,4.616.434A1.4,1.4,0,0,0,3.625,0a1.446,1.446,0,0,0-1,.437L1.569,1.49A2.164,2.164,0,0,0,.924,2.876a5.213,5.213,0,0,0,.391,2.253A13.108,13.108,0,0,0,3.656,9.035Zm-2.045-6.1a1.49,1.49,0,0,1,.448-.958L3.106.929A.758.758,0,0,1,3.625.69a.72.72,0,0,1,.507.245c.189.175.366.358.558.552l.293.3.839.839a.765.765,0,0,1,.265.527.765.765,0,0,1-.265.527l-.262.265c-.262.265-.507.515-.777.755l-.014.014a.551.551,0,0,0-.141.625l.008.023a6.629,6.629,0,0,0,.989,1.608A11.263,11.263,0,0,0,8.339,9.441a4.032,4.032,0,0,0,.372.2,3.483,3.483,0,0,1,.31.169l.031.017a.589.589,0,0,0,.273.07.6.6,0,0,0,.42-.192L10.8,8.655a.745.745,0,0,1,.515-.251.707.707,0,0,1,.5.251l1.7,1.7a.679.679,0,0,1-.008,1.062c-.118.127-.242.248-.375.375a8.111,8.111,0,0,0-.589.611,1.546,1.546,0,0,1-1.208.513c-.048,0-.1,0-.146-.006a6.782,6.782,0,0,1-2.428-.727A13.7,13.7,0,0,1,4.191,8.6,12.547,12.547,0,0,1,1.966,4.9,4.543,4.543,0,0,1,1.611,2.935Z" transform="translate(-0.912 0)"/>
</svg>
